<svg enable-background="new 0 0 17 21" viewBox="0 0 17 21" xmlns="http://www.w3.org/2000/svg"><path d="m16.4 15.1c-.9-1.2-2-2-3.6-2.4l-1.5 5.2c0 .5-.4.9-.9.9s-.9-.4-.9-.9v-4.2c0-.6-.5-1.1-1.1-1.1s-1.1.5-1.1 1.1v4.2c0 .5-.4.9-.9.9s-.9-.4-.9-.9l-1.5-5.2c-1.6.4-2.7 1.2-3.6 2.4-.2.5-.4 1.5-.4 2v.4.9.9c0 1 .8 1.7 1.7 1.7h13.5c1 0 1.7-.8 1.7-1.7v-.9-.9c0-.2 0-.3 0-.4.1-.5-.1-1.5-.5-2zm-12.5-10.5c0 2.6 1.6 6.3 4.6 6.3 2.9 0 4.6-3.8 4.6-6.3 0-2.6-2-4.6-4.6-4.6-2.5 0-4.6 2.1-4.6 4.6z" fill="#010101"/></svg>