<svg enable-background="new 0 0 28 43" viewBox="0 0 28 43" xmlns="http://www.w3.org/2000/svg"><path d="m11.7 13.9c0-1.2 1-2.2 2.3-2.2s2.3 1 2.3 2.2-1 2.2-2.3 2.2c-1.2 0-2.3-1-2.3-2.2zm2.3-5.8c-3.2 0-5.9 2.6-5.9 5.8s2.6 5.8 5.9 5.8c3.2 0 5.9-2.6 5.9-5.8s-2.7-5.8-5.9-5.8zm-14 5.5c0 9.1 10.9 16.2 11.7 26.7v.4c0 1.2 1 2.2 2.3 2.2s2.3-1 2.3-2.2v-.4c.9-10.5 11.7-17.5 11.7-26.7 0-7.5-6.3-13.6-14-13.6s-14 6.1-14 13.6zm14-9.1c5.2 0 9.5 4.2 9.5 9.4s-4.2 9.4-9.5 9.4-9.5-4.2-9.5-9.4 4.3-9.4 9.5-9.4z" fill="#ffd74b"/></svg>