<svg enable-background="new 0 0 18 18" viewBox="0 0 18 18" xmlns="http://www.w3.org/2000/svg"><g><path d="m12.6 18c-.3 0-.5 0-.8 0-3.6-.4-6.2-2.1-8.1-4.3-1.9-2.1-3.4-4.9-3.7-8.7 0-.3 0-.7 0-1 .1-.7.4-1.1.8-1.5.4-.5 1.2-1.1 1.8-1.2.5 0 1.3.3 1.6.8.3.4.4 1.2.6 1.8.1.6.4 1.4.4 2-.2.9-1.3 1.3-1.7 1.9 1.1 2.8 3 4.8 5.4 6.2.6-.3 1.2-1.4 2-1.4.3 0 .7.2 1 .3s.6.2 1 .4c.5.2 1.4.5 1.7.9s.5 1.2.4 1.7c-.1.8-1.6 1.8-2.4 2.1z"/><path d="m9.1 1.1c4.3 0 7.8 3.6 7.8 8h1.1c0-5-4-9.1-8.9-9.1z"/><path d="m9.1 6.9v1.1c.6 0 1 .5 1 1.1h1.1c0-1.2-.9-2.2-2.1-2.2z"/><path d="m9.1 4.6c2.4 0 4.4 2 4.4 4.5h1.2c0-3.1-2.5-5.7-5.5-5.7v1.2z"/></g></svg>
